<?xml version="1.0" standalone="no"?>
<!DOCTYPE svg PUBLIC "-//W3C//DTD SVG 20010904//EN"
 "http://www.w3.org/TR/2001/REC-SVG-20010904/DTD/svg10.dtd">
<svg width="421" height="486" viewBox="0 0 421 486" fill="white" xmlns="http://www.w3.org/2000/svg"
 preserveAspectRatio="xMidYMid meet">

<g transform="translate(0.000000,500.000000) scale(0.100000,-0.100000)"
fill="#000000" stroke="none">
<path d="M2584 3866 c-2 -6 -3 -490 -2 -1076 l3 -1065 585 -302 585 -303 400
207 c220 113 427 220 460 238 33 18 115 60 182 94 66 34 124 68 127 76 8 22 7
2133 -2 2138 -4 2 -131 -61 -282 -140 -151 -79 -387 -202 -525 -273 -137 -71
-274 -142 -302 -157 l-53 -28 -112 57 c-62 32 -326 168 -586 302 -283 146
-475 239 -478 232z m664 -467 c276 -142 506 -259 511 -259 6 0 90 42 188 93
347 183 841 437 847 437 3 0 5 -421 4 -936 l-3 -936 -365 -190 c-201 -104
-435 -225 -521 -269 l-156 -80 -419 217 c-230 119 -464 241 -519 270 l-100 52
-3 937 c-2 890 -1 937 15 930 10 -3 244 -123 521 -266z"/>
<path d="M2810 2683 l0 -829 109 -57 c59 -31 111 -57 115 -57 3 0 6 313 6 695
0 382 2 695 5 695 2 0 25 -10 50 -22 l45 -22 0 -702 0 -702 109 -56 c60 -31
112 -56 115 -56 3 0 6 313 6 695 0 382 2 695 5 695 2 0 25 -10 50 -22 l45 -22
0 -703 0 -703 110 -55 c60 -30 112 -55 115 -55 3 0 4 372 3 828 l-3 827 -175
90 c-96 50 -295 152 -443 228 l-267 138 0 -828z"/>
<path d="M4255 3281 l-440 -228 -3 -827 c-1 -454 0 -826 3 -826 3 0 55 25 115
55 l109 55 1 347 c0 318 2 349 18 361 9 7 158 84 329 170 l313 157 0 128 0
127 -330 -165 c-181 -91 -331 -165 -332 -165 -8 0 1 433 8 440 5 5 101 57 214
115 113 59 258 136 323 172 l117 65 0 124 c0 68 -1 124 -2 124 -2 0 -201 -103
-443 -229z"/>
</g>
</svg>
